<?xml version="1.0" encoding="UTF-8" standalone="no"?>
<!DOCTYPE svg PUBLIC "-//W3C//DTD SVG 1.1//EN" "http://www.w3.org/Graphics/SVG/1.1/DTD/svg11.dtd">
<svg width="100%" height="100%" viewBox="0 0 48 48" version="1.1" xmlns="http://www.w3.org/2000/svg" xmlns:xlink="http://www.w3.org/1999/xlink" xml:space="preserve" xmlns:serif="http://www.serif.com/" style="fill-rule:evenodd;clip-rule:evenodd;stroke-linejoin:round;stroke-miterlimit:2;">
    <g>
        <g transform="matrix(48,0,0,48,0,0)">
            <rect x="0" y="0" width="1" height="1" style="fill:rgb(76,175,80);"/>
        </g>
        <path d="M15.799,34.134C13.701,32.035 12.402,29.136 12.402,25.933C15.609,25.933 18.513,27.225 20.612,29.325L24.731,33.443C24.797,33.265 24.868,33.088 24.943,32.914L16.696,24.667C16.113,24.084 15.753,23.279 15.753,22.389C15.753,21.171 16.433,20.125 17.422,19.579L16.697,18.854C16.116,18.273 15.753,17.472 15.753,16.59C15.753,14.811 17.195,13.369 18.974,13.369C19.657,13.369 20.289,13.575 20.778,13.936L20.778,13.691C20.778,11.912 22.221,10.47 24,10.47C24.89,10.47 25.695,10.83 26.278,11.413L28.312,13.447C28.54,13.396 28.78,13.369 29.026,13.369C29.915,13.369 30.72,13.73 31.303,14.313L48.016,31.025L48.003,48L29.662,47.996L15.799,34.134Z" style="fill:url(#_Linear1);fill-rule:nonzero;"/>
        <path d="M12.402,25.933C12.402,32.338 17.595,37.53 24,37.53C24,31.087 18.807,25.933 12.402,25.933ZM24,16.268C25.779,16.268 27.222,17.711 27.222,19.49C27.222,21.269 25.779,22.711 24,22.711C22.221,22.711 20.778,21.269 20.778,19.49C20.778,17.711 22.221,16.268 24,16.268ZM15.753,22.389C15.753,24.168 17.195,25.611 18.974,25.611C19.657,25.611 20.289,25.392 20.778,25.044L20.778,25.289C20.778,27.068 22.221,28.51 24,28.51C25.779,28.51 27.222,27.068 27.222,25.289L27.222,25.044C27.711,25.392 28.343,25.611 29.026,25.611C30.804,25.611 32.247,24.168 32.247,22.389C32.247,21.101 31.487,20.005 30.404,19.49C31.487,18.974 32.247,17.866 32.247,16.59C32.247,14.812 30.804,13.369 29.026,13.369C28.343,13.369 27.711,13.575 27.222,13.936L27.222,13.691C27.222,11.912 25.779,10.47 24,10.47C22.221,10.47 20.778,11.912 20.778,13.691L20.778,13.936C20.289,13.575 19.657,13.369 18.974,13.369C17.195,13.369 15.753,14.811 15.753,16.59C15.753,17.866 16.513,18.974 17.596,19.49C16.513,20.005 15.753,21.101 15.753,22.389ZM24,37.53C30.405,37.53 35.598,32.338 35.598,25.933C29.154,25.933 24,31.087 24,37.53Z" style="fill:none;fill-rule:nonzero;"/>
        <path d="M12.402,25.933C18.807,25.933 24,31.087 24,37.53C17.595,37.53 12.402,32.338 12.402,25.933ZM24,16.268C22.221,16.268 20.778,17.711 20.778,19.49C20.778,21.269 22.221,22.711 24,22.711C25.779,22.711 27.222,21.269 27.222,19.49C27.222,17.711 25.779,16.268 24,16.268ZM15.753,22.389C15.753,21.101 16.513,20.005 17.596,19.49C16.513,18.974 15.753,17.866 15.753,16.59C15.753,14.811 17.195,13.369 18.974,13.369C19.657,13.369 20.289,13.575 20.778,13.936L20.778,13.691C20.778,11.912 22.221,10.47 24,10.47C25.779,10.47 27.222,11.912 27.222,13.691L27.222,13.936C27.711,13.575 28.343,13.369 29.026,13.369C30.804,13.369 32.247,14.812 32.247,16.59C32.247,17.866 31.487,18.974 30.404,19.49C31.487,20.005 32.247,21.101 32.247,22.389C32.247,24.168 30.804,25.611 29.026,25.611C28.343,25.611 27.711,25.392 27.222,25.044L27.222,25.289C27.222,27.068 25.779,28.51 24,28.51C22.221,28.51 20.778,27.068 20.778,25.289L20.778,25.044C20.289,25.392 19.657,25.611 18.974,25.611C17.195,25.611 15.753,24.168 15.753,22.389ZM35.598,25.933C35.598,32.338 30.405,37.53 24,37.53C24,31.087 29.154,25.933 35.598,25.933Z" style="fill:white;fill-rule:nonzero;"/>
    </g>
    <defs>
        <linearGradient id="_Linear1" x1="0" y1="0" x2="1" y2="0" gradientUnits="userSpaceOnUse" gradientTransform="matrix(52.573,56.4389,-56.4389,52.573,12.4024,10.4695)"><stop offset="0" style="stop-color:black;stop-opacity:0.2"/><stop offset="1" style="stop-color:black;stop-opacity:0"/></linearGradient>
    </defs>
</svg>
